<svg width="24" height="24" viewBox="0 0 24 24" fill="none" xmlns="http://www.w3.org/2000/svg">
<circle cx="12" cy="12" r="12" fill="#182C67"/>
<path d="M10.4444 11.5C11.3056 11.0556 11.7778 10.4167 11.7778 9.44444C11.7778 7.47222 10.3056 7 8.63889 7H4V16.8333H8.75C10.5556 16.8333 12.2222 15.9722 12.2222 13.9722C12.2222 12.75 11.6389 11.8333 10.4444 11.5ZM6.13889 8.66667H8.19444C8.97222 8.66667 9.66667 8.88889 9.66667 9.80556C9.66667 10.6389 9.11111 10.9722 8.33333 10.9722H6.13889V8.66667ZM8.47222 15.1667H6.13889V12.4444H8.5C9.47222 12.4444 10.0556 12.8611 10.0556 13.8611C10.0556 14.8611 9.33333 15.1667 8.47222 15.1667ZM18.4167 8.47222V7.5H14.4444V8.47222H18.4167ZM20 13.3889C20 11.2778 18.75 9.5 16.5278 9.5C14.3333 9.5 12.8611 11.1389 12.8611 13.2778C12.8611 15.5 14.2778 17.0278 16.5278 17.0278C18.2222 17.0278 19.3333 16.25 19.8611 14.6389H18.1389C17.9444 15.25 17.1667 15.5556 16.5833 15.5556C15.4444 15.5556 14.8333 14.8889 14.8333 13.75H19.9722C19.9722 13.6389 20 13.5 20 13.3889ZM14.8333 12.5C14.8889 11.5833 15.5278 11 16.4444 11C17.4444 11 17.9444 11.5556 18.0278 12.5H14.8333Z" fill="white"/>
</svg>
