<svg width="24" height="24" viewBox="0 0 24 24" fill="none" xmlns="http://www.w3.org/2000/svg">
<circle cx="12" cy="12" r="12" fill="#182C67"/>
<path d="M12 4C7.58065 4 4 7.6129 4 12C4 16.4194 7.58065 20 12 20C16.3871 20 20 16.4194 20 12C20 7.6129 16.3871 4 12 4ZM17.2581 7.70968C18.2258 8.87097 18.8065 10.3548 18.8065 11.9677C18.5806 11.9032 16.3226 11.4516 14.0645 11.7419C13.871 11.2903 13.7097 10.9032 13.4516 10.3871C16 9.35484 17.129 7.90323 17.2581 7.70968ZM16.5161 6.90323C16.3871 7.09677 15.3548 8.48387 12.9355 9.3871C11.8065 7.32258 10.5806 5.64516 10.3871 5.3871C12.5484 4.87097 14.8387 5.41935 16.5161 6.90323ZM9.06452 5.83871C9.25806 6.09677 10.4839 7.77419 11.6129 9.80645C8.41935 10.6452 5.6129 10.6452 5.29032 10.6129C5.74194 8.51613 7.16129 6.74194 9.06452 5.83871ZM5.16129 12.0323C5.16129 11.9677 5.16129 11.9032 5.16129 11.8065C5.45161 11.8387 8.77419 11.871 12.1613 10.8387C12.3871 11.2258 12.5484 11.6129 12.7419 12C10.2581 12.7097 8 14.7097 6.90323 16.5806C5.80645 15.3871 5.16129 13.7742 5.16129 12.0323ZM7.77419 17.4194C8.51613 15.9677 10.4516 14.0645 13.1935 13.129C14.1613 15.6129 14.5484 17.7097 14.6452 18.3226C12.4516 19.2581 9.80645 19 7.77419 17.4194ZM15.8065 17.6774C15.7419 17.2903 15.3548 15.2903 14.4839 12.8065C16.6129 12.4839 18.4839 13.0323 18.7419 13.0968C18.4194 15 17.3226 16.6452 15.8065 17.6774Z" fill="white"/>
</svg>
